# Tiled2Unity generated file. Do not modify by hand.
# Wavefront file for 'Map1_mesh_0002.obj'

# Vertices (Count = 980)
v -24 -1 0
v -25 -1 0
v -25 0 0
v -24 0 0
v -23 -1 0
v -24 -1 0
v -24 0 0
v -23 0 0
v -22 -1 0
v -23 -1 0
v -23 0 0
v -22 0 0
v -21 -1 0
v -22 -1 0
v -22 0 0
v -21 0 0
v -20 -1 0
v -21 -1 0
v -21 0 0
v -20 0 0
v -19 -1 0
v -20 -1 0
v -20 0 0
v -19 0 0
v -18 -1 0
v -19 -1 0
v -19 0 0
v -18 0 0
v -17 -1 0
v -18 -1 0
v -18 0 0
v -17 0 0
v -16 -1 0
v -17 -1 0
v -17 0 0
v -16 0 0
v -15 -1 0
v -16 -1 0
v -16 0 0
v -15 0 0
v -14 -1 0
v -15 -1 0
v -15 0 0
v -14 0 0
v -13 -1 0
v -14 -1 0
v -14 0 0
v -13 0 0
v -12 -1 0
v -13 -1 0
v -13 0 0
v -12 0 0
v -11 -1 0
v -12 -1 0
v -12 0 0
v -11 0 0
v -8 -1 0
v -9 -1 0
v -9 0 0
v -8 0 0
v -7 -1 0
v -8 -1 0
v -8 0 0
v -7 0 0
v -6 -1 0
v -7 -1 0
v -7 0 0
v -6 0 0
v -5 -1 0
v -6 -1 0
v -6 0 0
v -5 0 0
v -4 -1 0
v -5 -1 0
v -5 0 0
v -4 0 0
v -3 -1 0
v -4 -1 0
v -4 0 0
v -3 0 0
v -2 -1 0
v -3 -1 0
v -3 0 0
v -2 0 0
v -1 -1 0
v -2 -1 0
v -2 0 0
v -1 0 0
v 0 -1 0
v -1 -1 0
v -1 0 0
v 0 0 0
v -24 -2 0
v -25 -2 0
v -25 -1 0
v -24 -1 0
v -22 -2 0
v -23 -2 0
v -23 -1 0
v -22 -1 0
v -21 -2 0
v -22 -2 0
v -22 -1 0
v -21 -1 0
v -20 -2 0
v -21 -2 0
v -21 -1 0
v -20 -1 0
v -19 -2 0
v -20 -2 0
v -20 -1 0
v -19 -1 0
v -18 -2 0
v -19 -2 0
v -19 -1 0
v -18 -1 0
v -17 -2 0
v -18 -2 0
v -18 -1 0
v -17 -1 0
v -16 -2 0
v -17 -2 0
v -17 -1 0
v -16 -1 0
v -5 -2 0
v -6 -2 0
v -6 -1 0
v -5 -1 0
v -4 -2 0
v -5 -2 0
v -5 -1 0
v -4 -1 0
v 0 -2 0
v -1 -2 0
v -1 -1 0
v 0 -1 0
v -24 -3 0
v -25 -3 0
v -25 -2 0
v -24 -2 0
v -22 -3 0
v -23 -3 0
v -23 -2 0
v -22 -2 0
v -21 -3 0
v -22 -3 0
v -22 -2 0
v -21 -2 0
v -20 -3 0
v -21 -3 0
v -21 -2 0
v -20 -2 0
v -19 -3 0
v -20 -3 0
v -20 -2 0
v -19 -2 0
v -18 -3 0
v -19 -3 0
v -19 -2 0
v -18 -2 0
v -17 -3 0
v -18 -3 0
v -18 -2 0
v -17 -2 0
v -16 -3 0
v -17 -3 0
v -17 -2 0
v -16 -2 0
v -15 -3 0
v -16 -3 0
v -16 -2 0
v -15 -2 0
v -14 -3 0
v -15 -3 0
v -15 -2 0
v -14 -2 0
v -13 -3 0
v -14 -3 0
v -14 -2 0
v -13 -2 0
v -5 -3 0
v -6 -3 0
v -6 -2 0
v -5 -2 0
v -4 -3 0
v -5 -3 0
v -5 -2 0
v -4 -2 0
v 0 -3 0
v -1 -3 0
v -1 -2 0
v 0 -2 0
v -24 -4 0
v -25 -4 0
v -25 -3 0
v -24 -3 0
v -21 -4 0
v -22 -4 0
v -22 -3 0
v -21 -3 0
v -20 -4 0
v -21 -4 0
v -21 -3 0
v -20 -3 0
v -19 -4 0
v -20 -4 0
v -20 -3 0
v -19 -3 0
v -18 -4 0
v -19 -4 0
v -19 -3 0
v -18 -3 0
v -17 -4 0
v -18 -4 0
v -18 -3 0
v -17 -3 0
v -16 -4 0
v -17 -4 0
v -17 -3 0
v -16 -3 0
v -15 -4 0
v -16 -4 0
v -16 -3 0
v -15 -3 0
v -14 -4 0
v -15 -4 0
v -15 -3 0
v -14 -3 0
v -13 -4 0
v -14 -4 0
v -14 -3 0
v -13 -3 0
v -2 -4 0
v -3 -4 0
v -3 -3 0
v -2 -3 0
v -1 -4 0
v -2 -4 0
v -2 -3 0
v -1 -3 0
v 0 -4 0
v -1 -4 0
v -1 -3 0
v 0 -3 0
v -20 -5 0
v -21 -5 0
v -21 -4 0
v -20 -4 0
v -19 -5 0
v -20 -5 0
v -20 -4 0
v -19 -4 0
v -18 -5 0
v -19 -5 0
v -19 -4 0
v -18 -4 0
v -17 -5 0
v -18 -5 0
v -18 -4 0
v -17 -4 0
v -16 -5 0
v -17 -5 0
v -17 -4 0
v -16 -4 0
v -15 -5 0
v -16 -5 0
v -16 -4 0
v -15 -4 0
v -14 -5 0
v -15 -5 0
v -15 -4 0
v -14 -4 0
v -13 -5 0
v -14 -5 0
v -14 -4 0
v -13 -4 0
v -7 -5 0
v -8 -5 0
v -8 -4 0
v -7 -4 0
v -6 -5 0
v -7 -5 0
v -7 -4 0
v -6 -4 0
v -2 -5 0
v -3 -5 0
v -3 -4 0
v -2 -4 0
v -1 -5 0
v -2 -5 0
v -2 -4 0
v -1 -4 0
v 0 -5 0
v -1 -5 0
v -1 -4 0
v 0 -4 0
v -19 -6 0
v -20 -6 0
v -20 -5 0
v -19 -5 0
v -18 -6 0
v -19 -6 0
v -19 -5 0
v -18 -5 0
v -17 -6 0
v -18 -6 0
v -18 -5 0
v -17 -5 0
v -16 -6 0
v -17 -6 0
v -17 -5 0
v -16 -5 0
v -15 -6 0
v -16 -6 0
v -16 -5 0
v -15 -5 0
v -14 -6 0
v -15 -6 0
v -15 -5 0
v -14 -5 0
v -13 -6 0
v -14 -6 0
v -14 -5 0
v -13 -5 0
v -7 -6 0
v -8 -6 0
v -8 -5 0
v -7 -5 0
v -6 -6 0
v -7 -6 0
v -7 -5 0
v -6 -5 0
v 0 -6 0
v -1 -6 0
v -1 -5 0
v 0 -5 0
v -24 -7 0
v -25 -7 0
v -25 -6 0
v -24 -6 0
v -18 -7 0
v -19 -7 0
v -19 -6 0
v -18 -6 0
v -17 -7 0
v -18 -7 0
v -18 -6 0
v -17 -6 0
v -16 -7 0
v -17 -7 0
v -17 -6 0
v -16 -6 0
v -15 -7 0
v -16 -7 0
v -16 -6 0
v -15 -6 0
v -14 -7 0
v -15 -7 0
v -15 -6 0
v -14 -6 0
v -13 -7 0
v -14 -7 0
v -14 -6 0
v -13 -6 0
v -5 -7 0
v -6 -7 0
v -6 -6 0
v -5 -6 0
v -4 -7 0
v -5 -7 0
v -5 -6 0
v -4 -6 0
v 0 -7 0
v -1 -7 0
v -1 -6 0
v 0 -6 0
v -24 -8 0
v -25 -8 0
v -25 -7 0
v -24 -7 0
v -16 -8 0
v -17 -8 0
v -17 -7 0
v -16 -7 0
v -15 -8 0
v -16 -8 0
v -16 -7 0
v -15 -7 0
v -14 -8 0
v -15 -8 0
v -15 -7 0
v -14 -7 0
v -13 -8 0
v -14 -8 0
v -14 -7 0
v -13 -7 0
v -5 -8 0
v -6 -8 0
v -6 -7 0
v -5 -7 0
v -4 -8 0
v -5 -8 0
v -5 -7 0
v -4 -7 0
v 0 -8 0
v -1 -8 0
v -1 -7 0
v 0 -7 0
v -24 -9 0
v -25 -9 0
v -25 -8 0
v -24 -8 0
v -23 -9 0
v -24 -9 0
v -24 -8 0
v -23 -8 0
v -22 -9 0
v -23 -9 0
v -23 -8 0
v -22 -8 0
v 0 -9 0
v -1 -9 0
v -1 -8 0
v 0 -8 0
v -24 -10 0
v -25 -10 0
v -25 -9 0
v -24 -9 0
v -23 -10 0
v -24 -10 0
v -24 -9 0
v -23 -9 0
v -22 -10 0
v -23 -10 0
v -23 -9 0
v -22 -9 0
v -3 -10 0
v -4 -10 0
v -4 -9 0
v -3 -9 0
v -2 -10 0
v -3 -10 0
v -3 -9 0
v -2 -9 0
v 0 -10 0
v -1 -10 0
v -1 -9 0
v 0 -9 0
v -24 -11 0
v -25 -11 0
v -25 -10 0
v -24 -10 0
v -7 -11 0
v -8 -11 0
v -8 -10 0
v -7 -10 0
v -6 -11 0
v -7 -11 0
v -7 -10 0
v -6 -10 0
v -3 -11 0
v -4 -11 0
v -4 -10 0
v -3 -10 0
v -2 -11 0
v -3 -11 0
v -3 -10 0
v -2 -10 0
v 0 -11 0
v -1 -11 0
v -1 -10 0
v 0 -10 0
v -24 -12 0
v -25 -12 0
v -25 -11 0
v -24 -11 0
v -22 -12 0
v -23 -12 0
v -23 -11 0
v -22 -11 0
v -21 -12 0
v -22 -12 0
v -22 -11 0
v -21 -11 0
v -7 -12 0
v -8 -12 0
v -8 -11 0
v -7 -11 0
v -6 -12 0
v -7 -12 0
v -7 -11 0
v -6 -11 0
v 0 -12 0
v -1 -12 0
v -1 -11 0
v 0 -11 0
v -24 -13 0
v -25 -13 0
v -25 -12 0
v -24 -12 0
v -22 -13 0
v -23 -13 0
v -23 -12 0
v -22 -12 0
v -21 -13 0
v -22 -13 0
v -22 -12 0
v -21 -12 0
v 0 -13 0
v -1 -13 0
v -1 -12 0
v 0 -12 0
v -24 -14 0
v -25 -14 0
v -25 -13 0
v -24 -13 0
v -14 -14 0
v -15 -14 0
v -15 -13 0
v -14 -13 0
v -13 -14 0
v -14 -14 0
v -14 -13 0
v -13 -13 0
v 0 -14 0
v -1 -14 0
v -1 -13 0
v 0 -13 0
v -24 -15 0
v -25 -15 0
v -25 -14 0
v -24 -14 0
v -14 -15 0
v -15 -15 0
v -15 -14 0
v -14 -14 0
v -13 -15 0
v -14 -15 0
v -14 -14 0
v -13 -14 0
v 0 -15 0
v -1 -15 0
v -1 -14 0
v 0 -14 0
v -24 -16 0
v -25 -16 0
v -25 -15 0
v -24 -15 0
v -20 -16 0
v -21 -16 0
v -21 -15 0
v -20 -15 0
v -19 -16 0
v -20 -16 0
v -20 -15 0
v -19 -15 0
v -18 -16 0
v -19 -16 0
v -19 -15 0
v -18 -15 0
v -17 -16 0
v -18 -16 0
v -18 -15 0
v -17 -15 0
v -16 -16 0
v -17 -16 0
v -17 -15 0
v -16 -15 0
v -15 -16 0
v -16 -16 0
v -16 -15 0
v -15 -15 0
v -14 -16 0
v -15 -16 0
v -15 -15 0
v -14 -15 0
v -4 -16 0
v -5 -16 0
v -5 -15 0
v -4 -15 0
v -3 -16 0
v -4 -16 0
v -4 -15 0
v -3 -15 0
v 0 -16 0
v -1 -16 0
v -1 -15 0
v 0 -15 0
v -24 -17 0
v -25 -17 0
v -25 -16 0
v -24 -16 0
v -20 -17 0
v -21 -17 0
v -21 -16 0
v -20 -16 0
v -19 -17 0
v -20 -17 0
v -20 -16 0
v -19 -16 0
v -18 -17 0
v -19 -17 0
v -19 -16 0
v -18 -16 0
v -17 -17 0
v -18 -17 0
v -18 -16 0
v -17 -16 0
v -16 -17 0
v -17 -17 0
v -17 -16 0
v -16 -16 0
v -15 -17 0
v -16 -17 0
v -16 -16 0
v -15 -16 0
v -14 -17 0
v -15 -17 0
v -15 -16 0
v -14 -16 0
v -4 -17 0
v -5 -17 0
v -5 -16 0
v -4 -16 0
v -3 -17 0
v -4 -17 0
v -4 -16 0
v -3 -16 0
v 0 -17 0
v -1 -17 0
v -1 -16 0
v 0 -16 0
v -24 -18 0
v -25 -18 0
v -25 -17 0
v -24 -17 0
v -20 -18 0
v -21 -18 0
v -21 -17 0
v -20 -17 0
v -19 -18 0
v -20 -18 0
v -20 -17 0
v -19 -17 0
v -18 -18 0
v -19 -18 0
v -19 -17 0
v -18 -17 0
v -17 -18 0
v -18 -18 0
v -18 -17 0
v -17 -17 0
v -16 -18 0
v -17 -18 0
v -17 -17 0
v -16 -17 0
v -15 -18 0
v -16 -18 0
v -16 -17 0
v -15 -17 0
v -14 -18 0
v -15 -18 0
v -15 -17 0
v -14 -17 0
v 0 -18 0
v -1 -18 0
v -1 -17 0
v 0 -17 0
v -24 -19 0
v -25 -19 0
v -25 -18 0
v -24 -18 0
v -20 -19 0
v -21 -19 0
v -21 -18 0
v -20 -18 0
v -19 -19 0
v -20 -19 0
v -20 -18 0
v -19 -18 0
v -18 -19 0
v -19 -19 0
v -19 -18 0
v -18 -18 0
v -17 -19 0
v -18 -19 0
v -18 -18 0
v -17 -18 0
v -16 -19 0
v -17 -19 0
v -17 -18 0
v -16 -18 0
v -15 -19 0
v -16 -19 0
v -16 -18 0
v -15 -18 0
v -14 -19 0
v -15 -19 0
v -15 -18 0
v -14 -18 0
v -3 -19 0
v -4 -19 0
v -4 -18 0
v -3 -18 0
v -2 -19 0
v -3 -19 0
v -3 -18 0
v -2 -18 0
v 0 -19 0
v -1 -19 0
v -1 -18 0
v 0 -18 0
v -24 -20 0
v -25 -20 0
v -25 -19 0
v -24 -19 0
v -20 -20 0
v -21 -20 0
v -21 -19 0
v -20 -19 0
v -19 -20 0
v -20 -20 0
v -20 -19 0
v -19 -19 0
v -18 -20 0
v -19 -20 0
v -19 -19 0
v -18 -19 0
v -17 -20 0
v -18 -20 0
v -18 -19 0
v -17 -19 0
v -16 -20 0
v -17 -20 0
v -17 -19 0
v -16 -19 0
v -15 -20 0
v -16 -20 0
v -16 -19 0
v -15 -19 0
v -14 -20 0
v -15 -20 0
v -15 -19 0
v -14 -19 0
v -3 -20 0
v -4 -20 0
v -4 -19 0
v -3 -19 0
v -2 -20 0
v -3 -20 0
v -3 -19 0
v -2 -19 0
v 0 -20 0
v -1 -20 0
v -1 -19 0
v 0 -19 0
v -24 -21 0
v -25 -21 0
v -25 -20 0
v -24 -20 0
v -21 -21 0
v -22 -21 0
v -22 -20 0
v -21 -20 0
v -20 -21 0
v -21 -21 0
v -21 -20 0
v -20 -20 0
v -19 -21 0
v -20 -21 0
v -20 -20 0
v -19 -20 0
v -18 -21 0
v -19 -21 0
v -19 -20 0
v -18 -20 0
v -17 -21 0
v -18 -21 0
v -18 -20 0
v -17 -20 0
v -16 -21 0
v -17 -21 0
v -17 -20 0
v -16 -20 0
v -15 -21 0
v -16 -21 0
v -16 -20 0
v -15 -20 0
v -14 -21 0
v -15 -21 0
v -15 -20 0
v -14 -20 0
v -13 -21 0
v -14 -21 0
v -14 -20 0
v -13 -20 0
v 0 -21 0
v -1 -21 0
v -1 -20 0
v 0 -20 0
v -24 -22 0
v -25 -22 0
v -25 -21 0
v -24 -21 0
v -21 -22 0
v -22 -22 0
v -22 -21 0
v -21 -21 0
v -20 -22 0
v -21 -22 0
v -21 -21 0
v -20 -21 0
v -19 -22 0
v -20 -22 0
v -20 -21 0
v -19 -21 0
v -18 -22 0
v -19 -22 0
v -19 -21 0
v -18 -21 0
v -16 -22 0
v -17 -22 0
v -17 -21 0
v -16 -21 0
v -15 -22 0
v -16 -22 0
v -16 -21 0
v -15 -21 0
v -14 -22 0
v -15 -22 0
v -15 -21 0
v -14 -21 0
v -13 -22 0
v -14 -22 0
v -14 -21 0
v -13 -21 0
v -11 -22 0
v -12 -22 0
v -12 -21 0
v -11 -21 0
v -10 -22 0
v -11 -22 0
v -11 -21 0
v -10 -21 0
v 0 -22 0
v -1 -22 0
v -1 -21 0
v 0 -21 0
v -24 -23 0
v -25 -23 0
v -25 -22 0
v -24 -22 0
v -23 -23 0
v -24 -23 0
v -24 -22 0
v -23 -22 0
v -22 -23 0
v -23 -23 0
v -23 -22 0
v -22 -22 0
v -11 -23 0
v -12 -23 0
v -12 -22 0
v -11 -22 0
v -10 -23 0
v -11 -23 0
v -11 -22 0
v -10 -22 0
v 0 -23 0
v -1 -23 0
v -1 -22 0
v 0 -22 0
v -24 -24 0
v -25 -24 0
v -25 -23 0
v -24 -23 0
v -23 -24 0
v -24 -24 0
v -24 -23 0
v -23 -23 0
v -22 -24 0
v -23 -24 0
v -23 -23 0
v -22 -23 0
v 0 -24 0
v -1 -24 0
v -1 -23 0
v 0 -23 0
v -24 -25 0
v -25 -25 0
v -25 -24 0
v -24 -24 0
v -23 -25 0
v -24 -25 0
v -24 -24 0
v -23 -24 0
v -22 -25 0
v -23 -25 0
v -23 -24 0
v -22 -24 0
v -21 -25 0
v -22 -25 0
v -22 -24 0
v -21 -24 0
v -20 -25 0
v -21 -25 0
v -21 -24 0
v -20 -24 0
v -19 -25 0
v -20 -25 0
v -20 -24 0
v -19 -24 0
v -18 -25 0
v -19 -25 0
v -19 -24 0
v -18 -24 0
v -17 -25 0
v -18 -25 0
v -18 -24 0
v -17 -24 0
v -16 -25 0
v -17 -25 0
v -17 -24 0
v -16 -24 0
v -15 -25 0
v -16 -25 0
v -16 -24 0
v -15 -24 0
v -14 -25 0
v -15 -25 0
v -15 -24 0
v -14 -24 0
v -13 -25 0
v -14 -25 0
v -14 -24 0
v -13 -24 0
v -12 -25 0
v -13 -25 0
v -13 -24 0
v -12 -24 0
v -11 -25 0
v -12 -25 0
v -12 -24 0
v -11 -24 0
v -10 -25 0
v -11 -25 0
v -11 -24 0
v -10 -24 0
v -9 -25 0
v -10 -25 0
v -10 -24 0
v -9 -24 0
v -8 -25 0
v -9 -25 0
v -9 -24 0
v -8 -24 0
v -7 -25 0
v -8 -25 0
v -8 -24 0
v -7 -24 0
v -6 -25 0
v -7 -25 0
v -7 -24 0
v -6 -24 0
v -5 -25 0
v -6 -25 0
v -6 -24 0
v -5 -24 0
v -2 -25 0
v -3 -25 0
v -3 -24 0
v -2 -24 0
v -1 -25 0
v -2 -25 0
v -2 -24 0
v -1 -24 0
v 0 -25 0
v -1 -25 0
v -1 -24 0
v 0 -24 0

# Texture cooridinates (Count = 125)
vt 0.075 0.6111111
vt 0.1 0.6111111
vt 0.1 0.6388889
vt 0.075 0.6388889
vt 0.05 0.6111111
vt 0.05 0.6388889
vt 0 0.5277778
vt 0.025 0.5277778
vt 0.025 0.5555556
vt 0 0.5555556
vt 0.05 0.5277778
vt 0.05 0.5555556
vt 0.025 0.6111111
vt 0.025 0.6388889
vt 0.025 0.5833334
vt 0.05 0.5833334
vt 0 0.9722222
vt 0.025 0.9722222
vt 0.025 1
vt 0 1
vt 0.1 0.8055556
vt 0.125 0.8055556
vt 0.125 0.8333333
vt 0.1 0.8333333
vt 0.075 0.8055556
vt 0.075 0.8333333
vt 0.05 0.8055556
vt 0.05 0.8333333
vt 0.35 0.75
vt 0.375 0.75
vt 0.375 0.7777778
vt 0.35 0.7777778
vt 0.325 0.75
vt 0.325 0.7777778
vt 0.1 0.7777778
vt 0.125 0.7777778
vt 0.475 0.7222222
vt 0.5 0.7222222
vt 0.5 0.75
vt 0.475 0.75
vt 0.075 0.6944444
vt 0.1 0.6944444
vt 0.1 0.7222222
vt 0.075 0.7222222
vt 0.35 0.7222222
vt 0.375 0.7222222
vt 0.325 0.7222222
vt 0 0.5833334
vt 0.1 0.75
vt 0.125 0.75
vt 0.05 0.7222222
vt 0.075 0.75
vt 0.05 0.75
vt 0.075 0.7777778
vt 0.15 0.5277778
vt 0.175 0.5277778
vt 0.175 0.5555556
vt 0.15 0.5555556
vt 0.125 0.5277778
vt 0.125 0.5555556
vt 0.05 0.7777778
vt 0.15 0.5
vt 0.175 0.5
vt 0.125 0.5
vt 0 0.6111111
vt 0.075 0.5
vt 0.1 0.5
vt 0.1 0.5277778
vt 0.075 0.5277778
vt 0.05 0.5
vt 0.1 0.4722222
vt 0.125 0.4722222
vt 0.25 0.9722222
vt 0.275 0.9722222
vt 0.275 1
vt 0.25 1
vt 0.225 0.9722222
vt 0.225 1
vt 0.2 0.9722222
vt 0.2 1
vt 0.175 0.9722222
vt 0.175 1
vt 0.15 0.9722222
vt 0.15 1
vt 0.25 0.9444444
vt 0.275 0.9444444
vt 0.225 0.9444444
vt 0.2 0.9444444
vt 0.175 0.9444444
vt 0.15 0.9444444
vt 0.25 0.9166667
vt 0.275 0.9166667
vt 0.225 0.9166667
vt 0.2 0.9166667
vt 0.175 0.9166667
vt 0.15 0.9166667
vt 0.25 0.8888889
vt 0.275 0.8888889
vt 0.225 0.8888889
vt 0.2 0.8888889
vt 0.175 0.8888889
vt 0.15 0.8888889
vt 0.8 0.9444444
vt 0.825 0.9444444
vt 0.825 0.9722222
vt 0.8 0.9722222
vt 0.25 0.8611111
vt 0.275 0.8611111
vt 0.225 0.8611111
vt 0.2 0.8611111
vt 0.175 0.8611111
vt 0.15 0.8611111
vt 0.8 0.9166667
vt 0.825 0.9166667
vt 0.075 0.4722222
vt 0 0.4444444
vt 0.025 0.4444444
vt 0.025 0.4722222
vt 0 0.4722222
vt 0.05 0.4444444
vt 0.05 0.4722222
vt 0.075 0.5555556
vt 0.1 0.5555556
vt 0.1 0.5833334
vt 0.075 0.5833334

# Normal
vn 0 0 -1

# Mesh description
g Map1_mesh_0002

# Faces
f 1/1/1 2/2/1 3/3/1 4/4/1
f 5/5/1 6/1/1 7/4/1 8/6/1
f 9/5/1 10/1/1 11/4/1 12/6/1
f 13/5/1 14/1/1 15/4/1 16/6/1
f 17/5/1 18/1/1 19/4/1 20/6/1
f 21/5/1 22/1/1 23/4/1 24/6/1
f 25/5/1 26/1/1 27/4/1 28/6/1
f 29/5/1 30/1/1 31/4/1 32/6/1
f 33/5/1 34/1/1 35/4/1 36/6/1
f 37/5/1 38/1/1 39/4/1 40/6/1
f 41/5/1 42/1/1 43/4/1 44/6/1
f 45/5/1 46/1/1 47/4/1 48/6/1
f 49/5/1 50/1/1 51/4/1 52/6/1
f 53/7/1 54/8/1 55/9/1 56/10/1
f 57/8/1 58/11/1 59/12/1 60/9/1
f 61/5/1 62/1/1 63/4/1 64/6/1
f 65/5/1 66/1/1 67/4/1 68/6/1
f 69/5/1 70/1/1 71/4/1 72/6/1
f 73/5/1 74/1/1 75/4/1 76/6/1
f 77/5/1 78/1/1 79/4/1 80/6/1
f 81/5/1 82/1/1 83/4/1 84/6/1
f 85/5/1 86/1/1 87/4/1 88/6/1
f 89/13/1 90/5/1 91/6/1 92/14/1
f 93/15/1 94/16/1 95/5/1 96/13/1
f 97/17/1 98/18/1 99/19/1 100/20/1
f 101/21/1 102/22/1 103/23/1 104/24/1
f 105/25/1 106/21/1 107/24/1 108/26/1
f 109/25/1 110/21/1 111/24/1 112/26/1
f 113/25/1 114/21/1 115/24/1 116/26/1
f 117/25/1 118/21/1 119/24/1 120/26/1
f 121/27/1 122/25/1 123/26/1 124/28/1
f 125/29/1 126/30/1 127/31/1 128/32/1
f 129/33/1 130/29/1 131/32/1 132/34/1
f 133/15/1 134/16/1 135/5/1 136/13/1
f 137/15/1 138/16/1 139/5/1 140/13/1
f 141/17/1 142/18/1 143/19/1 144/20/1
f 145/35/1 146/36/1 147/22/1 148/21/1
f 149/37/1 150/38/1 151/39/1 152/40/1
f 153/37/1 154/38/1 155/39/1 156/40/1
f 157/37/1 158/38/1 159/39/1 160/40/1
f 161/37/1 162/38/1 163/39/1 164/40/1
f 165/41/1 166/42/1 167/43/1 168/44/1
f 169/27/1 170/25/1 171/26/1 172/28/1
f 173/17/1 174/18/1 175/19/1 176/20/1
f 177/17/1 178/18/1 179/19/1 180/20/1
f 181/45/1 182/46/1 183/30/1 184/29/1
f 185/47/1 186/45/1 187/29/1 188/33/1
f 189/15/1 190/16/1 191/5/1 192/13/1
f 193/10/1 194/9/1 195/15/1 196/48/1
f 197/49/1 198/50/1 199/36/1 200/35/1
f 201/51/1 202/44/1 203/52/1 204/53/1
f 205/37/1 206/38/1 207/39/1 208/40/1
f 209/37/1 210/38/1 211/39/1 212/40/1
f 213/37/1 214/38/1 215/39/1 216/40/1
f 217/37/1 218/38/1 219/39/1 220/40/1
f 221/41/1 222/42/1 223/43/1 224/44/1
f 225/27/1 226/25/1 227/26/1 228/28/1
f 229/17/1 230/18/1 231/19/1 232/20/1
f 233/29/1 234/30/1 235/31/1 236/32/1
f 237/33/1 238/29/1 239/32/1 240/34/1
f 241/15/1 242/16/1 243/5/1 244/13/1
f 245/49/1 246/50/1 247/36/1 248/35/1
f 249/52/1 250/49/1 251/35/1 252/54/1
f 253/51/1 254/44/1 255/52/1 256/53/1
f 257/37/1 258/38/1 259/39/1 260/40/1
f 261/37/1 262/38/1 263/39/1 264/40/1
f 265/37/1 266/38/1 267/39/1 268/40/1
f 269/41/1 270/42/1 271/43/1 272/44/1
f 273/27/1 274/25/1 275/26/1 276/28/1
f 277/55/1 278/56/1 279/57/1 280/58/1
f 281/59/1 282/55/1 283/58/1 284/60/1
f 285/45/1 286/46/1 287/30/1 288/29/1
f 289/47/1 290/45/1 291/29/1 292/33/1
f 293/15/1 294/16/1 295/5/1 296/13/1
f 297/17/1 298/18/1 299/19/1 300/20/1
f 301/49/1 302/50/1 303/36/1 304/35/1
f 305/51/1 306/44/1 307/52/1 308/53/1
f 309/37/1 310/38/1 311/39/1 312/40/1
f 313/37/1 314/38/1 315/39/1 316/40/1
f 317/37/1 318/38/1 319/39/1 320/40/1
f 321/61/1 322/54/1 323/25/1 324/27/1
f 325/62/1 326/63/1 327/56/1 328/55/1
f 329/64/1 330/62/1 331/55/1 332/59/1
f 333/15/1 334/16/1 335/5/1 336/13/1
f 337/48/1 338/15/1 339/13/1 340/65/1
f 341/17/1 342/18/1 343/19/1 344/20/1
f 345/49/1 346/50/1 347/36/1 348/35/1
f 349/51/1 350/44/1 351/52/1 352/53/1
f 353/37/1 354/38/1 355/39/1 356/40/1
f 357/37/1 358/38/1 359/39/1 360/40/1
f 361/61/1 362/54/1 363/25/1 364/27/1
f 365/29/1 366/30/1 367/31/1 368/32/1
f 369/33/1 370/29/1 371/32/1 372/34/1
f 373/15/1 374/16/1 375/5/1 376/13/1
f 377/15/1 378/16/1 379/5/1 380/13/1
f 381/49/1 382/50/1 383/36/1 384/35/1
f 385/52/1 386/49/1 387/35/1 388/54/1
f 389/52/1 390/49/1 391/35/1 392/54/1
f 393/53/1 394/52/1 395/54/1 396/61/1
f 397/45/1 398/46/1 399/30/1 400/29/1
f 401/47/1 402/45/1 403/29/1 404/33/1
f 405/15/1 406/16/1 407/5/1 408/13/1
f 409/15/1 410/16/1 411/5/1 412/13/1
f 413/29/1 414/30/1 415/31/1 416/32/1
f 417/33/1 418/29/1 419/32/1 420/34/1
f 421/15/1 422/16/1 423/5/1 424/13/1
f 425/15/1 426/16/1 427/5/1 428/13/1
f 429/45/1 430/46/1 431/30/1 432/29/1
f 433/47/1 434/45/1 435/29/1 436/33/1
f 437/29/1 438/30/1 439/31/1 440/32/1
f 441/33/1 442/29/1 443/32/1 444/34/1
f 445/15/1 446/16/1 447/5/1 448/13/1
f 449/15/1 450/16/1 451/5/1 452/13/1
f 453/29/1 454/30/1 455/31/1 456/32/1
f 457/33/1 458/29/1 459/32/1 460/34/1
f 461/45/1 462/46/1 463/30/1 464/29/1
f 465/47/1 466/45/1 467/29/1 468/33/1
f 469/15/1 470/16/1 471/5/1 472/13/1
f 473/15/1 474/16/1 475/5/1 476/13/1
f 477/55/1 478/56/1 479/57/1 480/58/1
f 481/59/1 482/55/1 483/58/1 484/60/1
f 485/45/1 486/46/1 487/30/1 488/29/1
f 489/47/1 490/45/1 491/29/1 492/33/1
f 493/15/1 494/16/1 495/5/1 496/13/1
f 497/15/1 498/16/1 499/5/1 500/13/1
f 501/62/1 502/63/1 503/56/1 504/55/1
f 505/64/1 506/62/1 507/55/1 508/59/1
f 509/15/1 510/16/1 511/5/1 512/13/1
f 513/15/1 514/16/1 515/5/1 516/13/1
f 517/29/1 518/30/1 519/31/1 520/32/1
f 521/33/1 522/29/1 523/32/1 524/34/1
f 525/15/1 526/16/1 527/5/1 528/13/1
f 529/15/1 530/16/1 531/5/1 532/13/1
f 533/45/1 534/46/1 535/30/1 536/29/1
f 537/47/1 538/45/1 539/29/1 540/33/1
f 541/15/1 542/16/1 543/5/1 544/13/1
f 545/15/1 546/16/1 547/5/1 548/13/1
f 549/66/1 550/67/1 551/68/1 552/69/1
f 553/67/1 554/64/1 555/59/1 556/68/1
f 557/67/1 558/64/1 559/59/1 560/68/1
f 561/67/1 562/64/1 563/59/1 564/68/1
f 565/67/1 566/64/1 567/59/1 568/68/1
f 569/67/1 570/64/1 571/59/1 572/68/1
f 573/70/1 574/66/1 575/69/1 576/11/1
f 577/29/1 578/30/1 579/31/1 580/32/1
f 581/33/1 582/29/1 583/32/1 584/34/1
f 585/15/1 586/16/1 587/5/1 588/13/1
f 589/15/1 590/16/1 591/5/1 592/13/1
f 593/71/1 594/72/1 595/64/1 596/67/1
f 597/73/1 598/74/1 599/75/1 600/76/1
f 601/77/1 602/73/1 603/76/1 604/78/1
f 605/79/1 606/77/1 607/78/1 608/80/1
f 609/81/1 610/79/1 611/80/1 612/82/1
f 613/83/1 614/81/1 615/82/1 616/84/1
f 617/71/1 618/72/1 619/64/1 620/67/1
f 621/45/1 622/46/1 623/30/1 624/29/1
f 625/47/1 626/45/1 627/29/1 628/33/1
f 629/15/1 630/16/1 631/5/1 632/13/1
f 633/15/1 634/16/1 635/5/1 636/13/1
f 637/71/1 638/72/1 639/64/1 640/67/1
f 641/85/1 642/86/1 643/74/1 644/73/1
f 645/87/1 646/85/1 647/73/1 648/77/1
f 649/88/1 650/87/1 651/77/1 652/79/1
f 653/89/1 654/88/1 655/79/1 656/81/1
f 657/90/1 658/89/1 659/81/1 660/83/1
f 661/71/1 662/72/1 663/64/1 664/67/1
f 665/15/1 666/16/1 667/5/1 668/13/1
f 669/15/1 670/16/1 671/5/1 672/13/1
f 673/71/1 674/72/1 675/64/1 676/67/1
f 677/91/1 678/92/1 679/86/1 680/85/1
f 681/93/1 682/91/1 683/85/1 684/87/1
f 685/94/1 686/93/1 687/87/1 688/88/1
f 689/95/1 690/94/1 691/88/1 692/89/1
f 693/96/1 694/95/1 695/89/1 696/90/1
f 697/71/1 698/72/1 699/64/1 700/67/1
f 701/55/1 702/56/1 703/57/1 704/58/1
f 705/59/1 706/55/1 707/58/1 708/60/1
f 709/15/1 710/16/1 711/5/1 712/13/1
f 713/15/1 714/16/1 715/5/1 716/13/1
f 717/71/1 718/72/1 719/64/1 720/67/1
f 721/97/1 722/98/1 723/92/1 724/91/1
f 725/99/1 726/97/1 727/91/1 728/93/1
f 729/100/1 730/99/1 731/93/1 732/94/1
f 733/101/1 734/100/1 735/94/1 736/95/1
f 737/102/1 738/101/1 739/95/1 740/96/1
f 741/71/1 742/72/1 743/64/1 744/67/1
f 745/62/1 746/63/1 747/56/1 748/55/1
f 749/64/1 750/62/1 751/55/1 752/59/1
f 753/15/1 754/16/1 755/5/1 756/13/1
f 757/15/1 758/16/1 759/5/1 760/13/1
f 761/103/1 762/104/1 763/105/1 764/106/1
f 765/71/1 766/72/1 767/64/1 768/67/1
f 769/107/1 770/108/1 771/98/1 772/97/1
f 773/109/1 774/107/1 775/97/1 776/99/1
f 777/110/1 778/109/1 779/99/1 780/100/1
f 781/111/1 782/110/1 783/100/1 784/101/1
f 785/112/1 786/111/1 787/101/1 788/102/1
f 789/71/1 790/72/1 791/64/1 792/67/1
f 793/103/1 794/104/1 795/105/1 796/106/1
f 797/15/1 798/16/1 799/5/1 800/13/1
f 801/15/1 802/16/1 803/5/1 804/13/1
f 805/113/1 806/114/1 807/104/1 808/103/1
f 809/115/1 810/71/1 811/67/1 812/66/1
f 813/67/1 814/64/1 815/59/1 816/68/1
f 817/116/1 818/117/1 819/118/1 820/119/1
f 821/117/1 822/120/1 823/121/1 824/118/1
f 825/67/1 826/64/1 827/59/1 828/68/1
f 829/121/1 830/115/1 831/66/1 832/70/1
f 833/113/1 834/114/1 835/104/1 836/103/1
f 837/29/1 838/30/1 839/31/1 840/32/1
f 841/33/1 842/29/1 843/32/1 844/34/1
f 845/15/1 846/16/1 847/5/1 848/13/1
f 849/15/1 850/16/1 851/5/1 852/13/1
f 853/29/1 854/30/1 855/31/1 856/32/1
f 857/33/1 858/29/1 859/32/1 860/34/1
f 861/45/1 862/46/1 863/30/1 864/29/1
f 865/47/1 866/45/1 867/29/1 868/33/1
f 869/15/1 870/16/1 871/5/1 872/13/1
f 873/15/1 874/16/1 875/5/1 876/13/1
f 877/45/1 878/46/1 879/30/1 880/29/1
f 881/47/1 882/45/1 883/29/1 884/33/1
f 885/15/1 886/16/1 887/5/1 888/13/1
f 889/122/1 890/123/1 891/124/1 892/125/1
f 893/5/1 894/1/1 895/4/1 896/6/1
f 897/5/1 898/1/1 899/4/1 900/6/1
f 901/5/1 902/1/1 903/4/1 904/6/1
f 905/5/1 906/1/1 907/4/1 908/6/1
f 909/5/1 910/1/1 911/4/1 912/6/1
f 913/5/1 914/1/1 915/4/1 916/6/1
f 917/5/1 918/1/1 919/4/1 920/6/1
f 921/5/1 922/1/1 923/4/1 924/6/1
f 925/5/1 926/1/1 927/4/1 928/6/1
f 929/5/1 930/1/1 931/4/1 932/6/1
f 933/5/1 934/1/1 935/4/1 936/6/1
f 937/5/1 938/1/1 939/4/1 940/6/1
f 941/5/1 942/1/1 943/4/1 944/6/1
f 945/5/1 946/1/1 947/4/1 948/6/1
f 949/5/1 950/1/1 951/4/1 952/6/1
f 953/5/1 954/1/1 955/4/1 956/6/1
f 957/5/1 958/1/1 959/4/1 960/6/1
f 961/5/1 962/1/1 963/4/1 964/6/1
f 965/7/1 966/8/1 967/9/1 968/10/1
f 969/8/1 970/11/1 971/12/1 972/9/1
f 973/5/1 974/1/1 975/4/1 976/6/1
f 977/9/1 978/12/1 979/16/1 980/15/1

