# Tiled2Unity generated file. Do not modify by hand.
# Wavefront file for 'MapV1_mesh_0014.obj'

# Vertices (Count = 912)
v -146 -40 0
v -147 -40 0
v -147 -39 0
v -146 -39 0
v -147 -40 0
v -148 -40 0
v -148 -39 0
v -147 -39 0
v -148 -40 0
v -149 -40 0
v -149 -39 0
v -148 -39 0
v -146 -41 0
v -147 -41 0
v -147 -40 0
v -146 -40 0
v -147 -41 0
v -148 -41 0
v -148 -40 0
v -147 -40 0
v -148 -41 0
v -149 -41 0
v -149 -40 0
v -148 -40 0
v -146 -42 0
v -147 -42 0
v -147 -41 0
v -146 -41 0
v -147 -42 0
v -148 -42 0
v -148 -41 0
v -147 -41 0
v -148 -42 0
v -149 -42 0
v -149 -41 0
v -148 -41 0
v -171 -84 0
v -172 -84 0
v -172 -83 0
v -171 -83 0
v -172 -84 0
v -173 -84 0
v -173 -83 0
v -172 -83 0
v -173 -84 0
v -174 -84 0
v -174 -83 0
v -173 -83 0
v -171 -85 0
v -172 -85 0
v -172 -84 0
v -171 -84 0
v -172 -85 0
v -173 -85 0
v -173 -84 0
v -172 -84 0
v -173 -85 0
v -174 -85 0
v -174 -84 0
v -173 -84 0
v -171 -86 0
v -172 -86 0
v -172 -85 0
v -171 -85 0
v -172 -86 0
v -173 -86 0
v -173 -85 0
v -172 -85 0
v -173 -86 0
v -174 -86 0
v -174 -85 0
v -173 -85 0
v -171 -87 0
v -172 -87 0
v -172 -86 0
v -171 -86 0
v -172 -87 0
v -173 -87 0
v -173 -86 0
v -172 -86 0
v -173 -87 0
v -174 -87 0
v -174 -86 0
v -173 -86 0
v -171 -88 0
v -172 -88 0
v -172 -87 0
v -171 -87 0
v -172 -88 0
v -173 -88 0
v -173 -87 0
v -172 -87 0
v -173 -88 0
v -174 -88 0
v -174 -87 0
v -173 -87 0
v -171 -89 0
v -172 -89 0
v -172 -88 0
v -171 -88 0
v -172 -89 0
v -173 -89 0
v -173 -88 0
v -172 -88 0
v -173 -89 0
v -174 -89 0
v -174 -88 0
v -173 -88 0
v -115 -120 0
v -116 -120 0
v -116 -119 0
v -115 -119 0
v -116 -120 0
v -117 -120 0
v -117 -119 0
v -116 -119 0
v -117 -120 0
v -118 -120 0
v -118 -119 0
v -117 -119 0
v -115 -121 0
v -116 -121 0
v -116 -120 0
v -115 -120 0
v -116 -121 0
v -117 -121 0
v -117 -120 0
v -116 -120 0
v -117 -121 0
v -118 -121 0
v -118 -120 0
v -117 -120 0
v -244 -121 0
v -245 -121 0
v -245 -120 0
v -244 -120 0
v -245 -121 0
v -246 -121 0
v -246 -120 0
v -245 -120 0
v -246 -121 0
v -247 -121 0
v -247 -120 0
v -246 -120 0
v -115 -122 0
v -116 -122 0
v -116 -121 0
v -115 -121 0
v -116 -122 0
v -117 -122 0
v -117 -121 0
v -116 -121 0
v -117 -122 0
v -118 -122 0
v -118 -121 0
v -117 -121 0
v -224 -122 0
v -225 -122 0
v -225 -121 0
v -224 -121 0
v -225 -122 0
v -226 -122 0
v -226 -121 0
v -225 -121 0
v -226 -122 0
v -227 -122 0
v -227 -121 0
v -226 -121 0
v -244 -122 0
v -245 -122 0
v -245 -121 0
v -244 -121 0
v -245 -122 0
v -246 -122 0
v -246 -121 0
v -245 -121 0
v -246 -122 0
v -247 -122 0
v -247 -121 0
v -246 -121 0
v -224 -123 0
v -225 -123 0
v -225 -122 0
v -224 -122 0
v -225 -123 0
v -226 -123 0
v -226 -122 0
v -225 -122 0
v -226 -123 0
v -227 -123 0
v -227 -122 0
v -226 -122 0
v -244 -123 0
v -245 -123 0
v -245 -122 0
v -244 -122 0
v -245 -123 0
v -246 -123 0
v -246 -122 0
v -245 -122 0
v -246 -123 0
v -247 -123 0
v -247 -122 0
v -246 -122 0
v -224 -124 0
v -225 -124 0
v -225 -123 0
v -224 -123 0
v -225 -124 0
v -226 -124 0
v -226 -123 0
v -225 -123 0
v -226 -124 0
v -227 -124 0
v -227 -123 0
v -226 -123 0
v -224 -125 0
v -225 -125 0
v -225 -124 0
v -224 -124 0
v -225 -125 0
v -226 -125 0
v -226 -124 0
v -225 -124 0
v -226 -125 0
v -227 -125 0
v -227 -124 0
v -226 -124 0
v -224 -126 0
v -225 -126 0
v -225 -125 0
v -224 -125 0
v -225 -126 0
v -226 -126 0
v -226 -125 0
v -225 -125 0
v -226 -126 0
v -227 -126 0
v -227 -125 0
v -226 -125 0
v -28 -130 0
v -29 -130 0
v -29 -129 0
v -28 -129 0
v -29 -130 0
v -30 -130 0
v -30 -129 0
v -29 -129 0
v -30 -130 0
v -31 -130 0
v -31 -129 0
v -30 -129 0
v -28 -131 0
v -29 -131 0
v -29 -130 0
v -28 -130 0
v -29 -131 0
v -30 -131 0
v -30 -130 0
v -29 -130 0
v -30 -131 0
v -31 -131 0
v -31 -130 0
v -30 -130 0
v -28 -132 0
v -29 -132 0
v -29 -131 0
v -28 -131 0
v -29 -132 0
v -30 -132 0
v -30 -131 0
v -29 -131 0
v -30 -132 0
v -31 -132 0
v -31 -131 0
v -30 -131 0
v -109 -135 0
v -110 -135 0
v -110 -134 0
v -109 -134 0
v -110 -135 0
v -111 -135 0
v -111 -134 0
v -110 -134 0
v -111 -135 0
v -112 -135 0
v -112 -134 0
v -111 -134 0
v -109 -136 0
v -110 -136 0
v -110 -135 0
v -109 -135 0
v -110 -136 0
v -111 -136 0
v -111 -135 0
v -110 -135 0
v -111 -136 0
v -112 -136 0
v -112 -135 0
v -111 -135 0
v -109 -137 0
v -110 -137 0
v -110 -136 0
v -109 -136 0
v -110 -137 0
v -111 -137 0
v -111 -136 0
v -110 -136 0
v -111 -137 0
v -112 -137 0
v -112 -136 0
v -111 -136 0
v -109 -138 0
v -110 -138 0
v -110 -137 0
v -109 -137 0
v -110 -138 0
v -111 -138 0
v -111 -137 0
v -110 -137 0
v -111 -138 0
v -112 -138 0
v -112 -137 0
v -111 -137 0
v -109 -139 0
v -110 -139 0
v -110 -138 0
v -109 -138 0
v -110 -139 0
v -111 -139 0
v -111 -138 0
v -110 -138 0
v -111 -139 0
v -112 -139 0
v -112 -138 0
v -111 -138 0
v -129 -139 0
v -130 -139 0
v -130 -138 0
v -129 -138 0
v -130 -139 0
v -131 -139 0
v -131 -138 0
v -130 -138 0
v -131 -139 0
v -132 -139 0
v -132 -138 0
v -131 -138 0
v -109 -140 0
v -110 -140 0
v -110 -139 0
v -109 -139 0
v -110 -140 0
v -111 -140 0
v -111 -139 0
v -110 -139 0
v -111 -140 0
v -112 -140 0
v -112 -139 0
v -111 -139 0
v -129 -140 0
v -130 -140 0
v -130 -139 0
v -129 -139 0
v -130 -140 0
v -131 -140 0
v -131 -139 0
v -130 -139 0
v -131 -140 0
v -132 -140 0
v -132 -139 0
v -131 -139 0
v -109 -141 0
v -110 -141 0
v -110 -140 0
v -109 -140 0
v -110 -141 0
v -111 -141 0
v -111 -140 0
v -110 -140 0
v -111 -141 0
v -112 -141 0
v -112 -140 0
v -111 -140 0
v -129 -141 0
v -130 -141 0
v -130 -140 0
v -129 -140 0
v -130 -141 0
v -131 -141 0
v -131 -140 0
v -130 -140 0
v -131 -141 0
v -132 -141 0
v -132 -140 0
v -131 -140 0
v -225 -142 0
v -226 -142 0
v -226 -141 0
v -225 -141 0
v -226 -142 0
v -227 -142 0
v -227 -141 0
v -226 -141 0
v -227 -142 0
v -228 -142 0
v -228 -141 0
v -227 -141 0
v -228 -142 0
v -229 -142 0
v -229 -141 0
v -228 -141 0
v -119 -143 0
v -120 -143 0
v -120 -142 0
v -119 -142 0
v -120 -143 0
v -121 -143 0
v -121 -142 0
v -120 -142 0
v -121 -143 0
v -122 -143 0
v -122 -142 0
v -121 -142 0
v -225 -143 0
v -226 -143 0
v -226 -142 0
v -225 -142 0
v -226 -143 0
v -227 -143 0
v -227 -142 0
v -226 -142 0
v -227 -143 0
v -228 -143 0
v -228 -142 0
v -227 -142 0
v -228 -143 0
v -229 -143 0
v -229 -142 0
v -228 -142 0
v -119 -144 0
v -120 -144 0
v -120 -143 0
v -119 -143 0
v -120 -144 0
v -121 -144 0
v -121 -143 0
v -120 -143 0
v -121 -144 0
v -122 -144 0
v -122 -143 0
v -121 -143 0
v -225 -144 0
v -226 -144 0
v -226 -143 0
v -225 -143 0
v -226 -144 0
v -227 -144 0
v -227 -143 0
v -226 -143 0
v -227 -144 0
v -228 -144 0
v -228 -143 0
v -227 -143 0
v -228 -144 0
v -229 -144 0
v -229 -143 0
v -228 -143 0
v -119 -145 0
v -120 -145 0
v -120 -144 0
v -119 -144 0
v -120 -145 0
v -121 -145 0
v -121 -144 0
v -120 -144 0
v -121 -145 0
v -122 -145 0
v -122 -144 0
v -121 -144 0
v -27 -146 0
v -28 -146 0
v -28 -145 0
v -27 -145 0
v -28 -146 0
v -29 -146 0
v -29 -145 0
v -28 -145 0
v -29 -146 0
v -30 -146 0
v -30 -145 0
v -29 -145 0
v -30 -146 0
v -31 -146 0
v -31 -145 0
v -30 -145 0
v -27 -147 0
v -28 -147 0
v -28 -146 0
v -27 -146 0
v -28 -147 0
v -29 -147 0
v -29 -146 0
v -28 -146 0
v -29 -147 0
v -30 -147 0
v -30 -146 0
v -29 -146 0
v -30 -147 0
v -31 -147 0
v -31 -146 0
v -30 -146 0
v -27 -148 0
v -28 -148 0
v -28 -147 0
v -27 -147 0
v -28 -148 0
v -29 -148 0
v -29 -147 0
v -28 -147 0
v -29 -148 0
v -30 -148 0
v -30 -147 0
v -29 -147 0
v -30 -148 0
v -31 -148 0
v -31 -147 0
v -30 -147 0
v -24 -151 0
v -25 -151 0
v -25 -150 0
v -24 -150 0
v -25 -151 0
v -26 -151 0
v -26 -150 0
v -25 -150 0
v -26 -151 0
v -27 -151 0
v -27 -150 0
v -26 -150 0
v -24 -152 0
v -25 -152 0
v -25 -151 0
v -24 -151 0
v -25 -152 0
v -26 -152 0
v -26 -151 0
v -25 -151 0
v -26 -152 0
v -27 -152 0
v -27 -151 0
v -26 -151 0
v -24 -153 0
v -25 -153 0
v -25 -152 0
v -24 -152 0
v -25 -153 0
v -26 -153 0
v -26 -152 0
v -25 -152 0
v -26 -153 0
v -27 -153 0
v -27 -152 0
v -26 -152 0
v -24 -154 0
v -25 -154 0
v -25 -153 0
v -24 -153 0
v -25 -154 0
v -26 -154 0
v -26 -153 0
v -25 -153 0
v -26 -154 0
v -27 -154 0
v -27 -153 0
v -26 -153 0
v -24 -155 0
v -25 -155 0
v -25 -154 0
v -24 -154 0
v -25 -155 0
v -26 -155 0
v -26 -154 0
v -25 -154 0
v -26 -155 0
v -27 -155 0
v -27 -154 0
v -26 -154 0
v -24 -156 0
v -25 -156 0
v -25 -155 0
v -24 -155 0
v -25 -156 0
v -26 -156 0
v -26 -155 0
v -25 -155 0
v -26 -156 0
v -27 -156 0
v -27 -155 0
v -26 -155 0
v -32 -159 0
v -33 -159 0
v -33 -158 0
v -32 -158 0
v -33 -159 0
v -34 -159 0
v -34 -158 0
v -33 -158 0
v -34 -159 0
v -35 -159 0
v -35 -158 0
v -34 -158 0
v -35 -159 0
v -36 -159 0
v -36 -158 0
v -35 -158 0
v -32 -160 0
v -33 -160 0
v -33 -159 0
v -32 -159 0
v -33 -160 0
v -34 -160 0
v -34 -159 0
v -33 -159 0
v -34 -160 0
v -35 -160 0
v -35 -159 0
v -34 -159 0
v -35 -160 0
v -36 -160 0
v -36 -159 0
v -35 -159 0
v -32 -161 0
v -33 -161 0
v -33 -160 0
v -32 -160 0
v -33 -161 0
v -34 -161 0
v -34 -160 0
v -33 -160 0
v -34 -161 0
v -35 -161 0
v -35 -160 0
v -34 -160 0
v -35 -161 0
v -36 -161 0
v -36 -160 0
v -35 -160 0
v -42 -171 0
v -43 -171 0
v -43 -170 0
v -42 -170 0
v -43 -171 0
v -44 -171 0
v -44 -170 0
v -43 -170 0
v -44 -171 0
v -45 -171 0
v -45 -170 0
v -44 -170 0
v -42 -172 0
v -43 -172 0
v -43 -171 0
v -42 -171 0
v -43 -172 0
v -44 -172 0
v -44 -171 0
v -43 -171 0
v -44 -172 0
v -45 -172 0
v -45 -171 0
v -44 -171 0
v -23 -173 0
v -24 -173 0
v -24 -172 0
v -23 -172 0
v -24 -173 0
v -25 -173 0
v -25 -172 0
v -24 -172 0
v -25 -173 0
v -26 -173 0
v -26 -172 0
v -25 -172 0
v -26 -173 0
v -27 -173 0
v -27 -172 0
v -26 -172 0
v -27 -173 0
v -28 -173 0
v -28 -172 0
v -27 -172 0
v -42 -173 0
v -43 -173 0
v -43 -172 0
v -42 -172 0
v -43 -173 0
v -44 -173 0
v -44 -172 0
v -43 -172 0
v -44 -173 0
v -45 -173 0
v -45 -172 0
v -44 -172 0
v -23 -174 0
v -24 -174 0
v -24 -173 0
v -23 -173 0
v -24 -174 0
v -25 -174 0
v -25 -173 0
v -24 -173 0
v -25 -174 0
v -26 -174 0
v -26 -173 0
v -25 -173 0
v -26 -174 0
v -27 -174 0
v -27 -173 0
v -26 -173 0
v -27 -174 0
v -28 -174 0
v -28 -173 0
v -27 -173 0
v -42 -174 0
v -43 -174 0
v -43 -173 0
v -42 -173 0
v -43 -174 0
v -44 -174 0
v -44 -173 0
v -43 -173 0
v -44 -174 0
v -45 -174 0
v -45 -173 0
v -44 -173 0
v -23 -175 0
v -24 -175 0
v -24 -174 0
v -23 -174 0
v -24 -175 0
v -25 -175 0
v -25 -174 0
v -24 -174 0
v -25 -175 0
v -26 -175 0
v -26 -174 0
v -25 -174 0
v -26 -175 0
v -27 -175 0
v -27 -174 0
v -26 -174 0
v -27 -175 0
v -28 -175 0
v -28 -174 0
v -27 -174 0
v -42 -175 0
v -43 -175 0
v -43 -174 0
v -42 -174 0
v -43 -175 0
v -44 -175 0
v -44 -174 0
v -43 -174 0
v -44 -175 0
v -45 -175 0
v -45 -174 0
v -44 -174 0
v -53 -190 0
v -54 -190 0
v -54 -189 0
v -53 -189 0
v -54 -190 0
v -55 -190 0
v -55 -189 0
v -54 -189 0
v -55 -190 0
v -56 -190 0
v -56 -189 0
v -55 -189 0
v -53 -191 0
v -54 -191 0
v -54 -190 0
v -53 -190 0
v -54 -191 0
v -55 -191 0
v -55 -190 0
v -54 -190 0
v -55 -191 0
v -56 -191 0
v -56 -190 0
v -55 -190 0
v -53 -192 0
v -54 -192 0
v -54 -191 0
v -53 -191 0
v -54 -192 0
v -55 -192 0
v -55 -191 0
v -54 -191 0
v -55 -192 0
v -56 -192 0
v -56 -191 0
v -55 -191 0
v -5 -211 0
v -6 -211 0
v -6 -210 0
v -5 -210 0
v -6 -211 0
v -7 -211 0
v -7 -210 0
v -6 -210 0
v -7 -211 0
v -8 -211 0
v -8 -210 0
v -7 -210 0
v -5 -212 0
v -6 -212 0
v -6 -211 0
v -5 -211 0
v -6 -212 0
v -7 -212 0
v -7 -211 0
v -6 -211 0
v -7 -212 0
v -8 -212 0
v -8 -211 0
v -7 -211 0
v -5 -213 0
v -6 -213 0
v -6 -212 0
v -5 -212 0
v -6 -213 0
v -7 -213 0
v -7 -212 0
v -6 -212 0
v -7 -213 0
v -8 -213 0
v -8 -212 0
v -7 -212 0
v -17 -217 0
v -18 -217 0
v -18 -216 0
v -17 -216 0
v -18 -217 0
v -19 -217 0
v -19 -216 0
v -18 -216 0
v -19 -217 0
v -20 -217 0
v -20 -216 0
v -19 -216 0
v -17 -218 0
v -18 -218 0
v -18 -217 0
v -17 -217 0
v -18 -218 0
v -19 -218 0
v -19 -217 0
v -18 -217 0
v -19 -218 0
v -20 -218 0
v -20 -217 0
v -19 -217 0
v -17 -219 0
v -18 -219 0
v -18 -218 0
v -17 -218 0
v -18 -219 0
v -19 -219 0
v -19 -218 0
v -18 -218 0
v -19 -219 0
v -20 -219 0
v -20 -218 0
v -19 -218 0
v -48 -230 0
v -49 -230 0
v -49 -229 0
v -48 -229 0
v -49 -230 0
v -50 -230 0
v -50 -229 0
v -49 -229 0
v -50 -230 0
v -51 -230 0
v -51 -229 0
v -50 -229 0
v -48 -231 0
v -49 -231 0
v -49 -230 0
v -48 -230 0
v -49 -231 0
v -50 -231 0
v -50 -230 0
v -49 -230 0
v -50 -231 0
v -51 -231 0
v -51 -230 0
v -50 -230 0
v -48 -232 0
v -49 -232 0
v -49 -231 0
v -48 -231 0
v -49 -232 0
v -50 -232 0
v -50 -231 0
v -49 -231 0
v -50 -232 0
v -51 -232 0
v -51 -231 0
v -50 -231 0

# Texture cooridinates (Count = 28)
vt 0.125 0.8055556
vt 0.15 0.8055556
vt 0.15 0.8333333
vt 0.125 0.8333333
vt 0.175 0.8055556
vt 0.175 0.8333333
vt 0.2 0.8055556
vt 0.2 0.8333333
vt 0.125 0.7777778
vt 0.15 0.7777778
vt 0.175 0.7777778
vt 0.2 0.7777778
vt 0.125 0.75
vt 0.15 0.75
vt 0.175 0.75
vt 0.2 0.75
vt 0.225 0.8055556
vt 0.225 0.8333333
vt 0.25 0.8055556
vt 0.25 0.8333333
vt 0.275 0.8055556
vt 0.275 0.8333333
vt 0.225 0.7777778
vt 0.25 0.7777778
vt 0.275 0.7777778
vt 0.225 0.75
vt 0.25 0.75
vt 0.275 0.75

# Normal
vn 0 0 -1

# Mesh description
g MapV1_mesh_0014

# Faces
f 1/1/1 2/2/1 3/3/1 4/4/1
f 5/2/1 6/5/1 7/6/1 8/3/1
f 9/5/1 10/7/1 11/8/1 12/6/1
f 13/9/1 14/10/1 15/2/1 16/1/1
f 17/10/1 18/11/1 19/5/1 20/2/1
f 21/11/1 22/12/1 23/7/1 24/5/1
f 25/13/1 26/14/1 27/10/1 28/9/1
f 29/14/1 30/15/1 31/11/1 32/10/1
f 33/15/1 34/16/1 35/12/1 36/11/1
f 37/1/1 38/2/1 39/3/1 40/4/1
f 41/2/1 42/5/1 43/6/1 44/3/1
f 45/5/1 46/7/1 47/8/1 48/6/1
f 49/9/1 50/10/1 51/2/1 52/1/1
f 53/10/1 54/11/1 55/5/1 56/2/1
f 57/11/1 58/12/1 59/7/1 60/5/1
f 61/9/1 62/10/1 63/2/1 64/1/1
f 65/10/1 66/11/1 67/5/1 68/2/1
f 69/11/1 70/12/1 71/7/1 72/5/1
f 73/9/1 74/10/1 75/2/1 76/1/1
f 77/10/1 78/11/1 79/5/1 80/2/1
f 81/11/1 82/12/1 83/7/1 84/5/1
f 85/9/1 86/10/1 87/2/1 88/1/1
f 89/10/1 90/11/1 91/5/1 92/2/1
f 93/11/1 94/12/1 95/7/1 96/5/1
f 97/13/1 98/14/1 99/10/1 100/9/1
f 101/14/1 102/15/1 103/11/1 104/10/1
f 105/15/1 106/16/1 107/12/1 108/11/1
f 109/7/1 110/17/1 111/18/1 112/8/1
f 113/17/1 114/19/1 115/20/1 116/18/1
f 117/19/1 118/21/1 119/22/1 120/20/1
f 121/12/1 122/23/1 123/17/1 124/7/1
f 125/23/1 126/24/1 127/19/1 128/17/1
f 129/24/1 130/25/1 131/21/1 132/19/1
f 133/1/1 134/2/1 135/3/1 136/4/1
f 137/2/1 138/5/1 139/6/1 140/3/1
f 141/5/1 142/7/1 143/8/1 144/6/1
f 145/16/1 146/26/1 147/23/1 148/12/1
f 149/26/1 150/27/1 151/24/1 152/23/1
f 153/27/1 154/28/1 155/25/1 156/24/1
f 157/1/1 158/2/1 159/3/1 160/4/1
f 161/2/1 162/5/1 163/6/1 164/3/1
f 165/5/1 166/7/1 167/8/1 168/6/1
f 169/9/1 170/10/1 171/2/1 172/1/1
f 173/10/1 174/11/1 175/5/1 176/2/1
f 177/11/1 178/12/1 179/7/1 180/5/1
f 181/9/1 182/10/1 183/2/1 184/1/1
f 185/10/1 186/11/1 187/5/1 188/2/1
f 189/11/1 190/12/1 191/7/1 192/5/1
f 193/13/1 194/14/1 195/10/1 196/9/1
f 197/14/1 198/15/1 199/11/1 200/10/1
f 201/15/1 202/16/1 203/12/1 204/11/1
f 205/9/1 206/10/1 207/2/1 208/1/1
f 209/10/1 210/11/1 211/5/1 212/2/1
f 213/11/1 214/12/1 215/7/1 216/5/1
f 217/9/1 218/10/1 219/2/1 220/1/1
f 221/10/1 222/11/1 223/5/1 224/2/1
f 225/11/1 226/12/1 227/7/1 228/5/1
f 229/13/1 230/14/1 231/10/1 232/9/1
f 233/14/1 234/15/1 235/11/1 236/10/1
f 237/15/1 238/16/1 239/12/1 240/11/1
f 241/7/1 242/17/1 243/18/1 244/8/1
f 245/17/1 246/19/1 247/20/1 248/18/1
f 249/19/1 250/21/1 251/22/1 252/20/1
f 253/12/1 254/23/1 255/17/1 256/7/1
f 257/23/1 258/24/1 259/19/1 260/17/1
f 261/24/1 262/25/1 263/21/1 264/19/1
f 265/16/1 266/26/1 267/23/1 268/12/1
f 269/26/1 270/27/1 271/24/1 272/23/1
f 273/27/1 274/28/1 275/25/1 276/24/1
f 277/1/1 278/2/1 279/3/1 280/4/1
f 281/2/1 282/5/1 283/6/1 284/3/1
f 285/5/1 286/7/1 287/8/1 288/6/1
f 289/9/1 290/10/1 291/2/1 292/1/1
f 293/10/1 294/11/1 295/5/1 296/2/1
f 297/11/1 298/12/1 299/7/1 300/5/1
f 301/9/1 302/10/1 303/2/1 304/1/1
f 305/10/1 306/11/1 307/5/1 308/2/1
f 309/11/1 310/12/1 311/7/1 312/5/1
f 313/9/1 314/10/1 315/2/1 316/1/1
f 317/10/1 318/11/1 319/5/1 320/2/1
f 321/11/1 322/12/1 323/7/1 324/5/1
f 325/9/1 326/10/1 327/2/1 328/1/1
f 329/10/1 330/11/1 331/5/1 332/2/1
f 333/11/1 334/12/1 335/7/1 336/5/1
f 337/1/1 338/2/1 339/3/1 340/4/1
f 341/2/1 342/5/1 343/6/1 344/3/1
f 345/5/1 346/7/1 347/8/1 348/6/1
f 349/9/1 350/10/1 351/2/1 352/1/1
f 353/10/1 354/11/1 355/5/1 356/2/1
f 357/11/1 358/12/1 359/7/1 360/5/1
f 361/9/1 362/10/1 363/2/1 364/1/1
f 365/10/1 366/11/1 367/5/1 368/2/1
f 369/11/1 370/12/1 371/7/1 372/5/1
f 373/13/1 374/14/1 375/10/1 376/9/1
f 377/14/1 378/15/1 379/11/1 380/10/1
f 381/15/1 382/16/1 383/12/1 384/11/1
f 385/13/1 386/14/1 387/10/1 388/9/1
f 389/14/1 390/15/1 391/11/1 392/10/1
f 393/15/1 394/16/1 395/12/1 396/11/1
f 397/7/1 398/17/1 399/18/1 400/8/1
f 401/17/1 402/19/1 403/20/1 404/18/1
f 405/17/1 406/19/1 407/20/1 408/18/1
f 409/19/1 410/21/1 411/22/1 412/20/1
f 413/7/1 414/17/1 415/18/1 416/8/1
f 417/17/1 418/19/1 419/20/1 420/18/1
f 421/19/1 422/21/1 423/22/1 424/20/1
f 425/12/1 426/23/1 427/17/1 428/7/1
f 429/23/1 430/24/1 431/19/1 432/17/1
f 433/23/1 434/24/1 435/19/1 436/17/1
f 437/24/1 438/25/1 439/21/1 440/19/1
f 441/12/1 442/23/1 443/17/1 444/7/1
f 445/23/1 446/24/1 447/19/1 448/17/1
f 449/24/1 450/25/1 451/21/1 452/19/1
f 453/16/1 454/26/1 455/23/1 456/12/1
f 457/26/1 458/27/1 459/24/1 460/23/1
f 461/26/1 462/27/1 463/24/1 464/23/1
f 465/27/1 466/28/1 467/25/1 468/24/1
f 469/16/1 470/26/1 471/23/1 472/12/1
f 473/26/1 474/27/1 475/24/1 476/23/1
f 477/27/1 478/28/1 479/25/1 480/24/1
f 481/7/1 482/17/1 483/18/1 484/8/1
f 485/17/1 486/19/1 487/20/1 488/18/1
f 489/17/1 490/19/1 491/20/1 492/18/1
f 493/19/1 494/21/1 495/22/1 496/20/1
f 497/12/1 498/23/1 499/17/1 500/7/1
f 501/23/1 502/24/1 503/19/1 504/17/1
f 505/23/1 506/24/1 507/19/1 508/17/1
f 509/24/1 510/25/1 511/21/1 512/19/1
f 513/16/1 514/26/1 515/23/1 516/12/1
f 517/26/1 518/27/1 519/24/1 520/23/1
f 521/26/1 522/27/1 523/24/1 524/23/1
f 525/27/1 526/28/1 527/25/1 528/24/1
f 529/1/1 530/2/1 531/3/1 532/4/1
f 533/2/1 534/5/1 535/6/1 536/3/1
f 537/5/1 538/7/1 539/8/1 540/6/1
f 541/9/1 542/10/1 543/2/1 544/1/1
f 545/10/1 546/11/1 547/5/1 548/2/1
f 549/11/1 550/12/1 551/7/1 552/5/1
f 553/9/1 554/10/1 555/2/1 556/1/1
f 557/10/1 558/11/1 559/5/1 560/2/1
f 561/11/1 562/12/1 563/7/1 564/5/1
f 565/9/1 566/10/1 567/2/1 568/1/1
f 569/10/1 570/11/1 571/5/1 572/2/1
f 573/11/1 574/12/1 575/7/1 576/5/1
f 577/9/1 578/10/1 579/2/1 580/1/1
f 581/10/1 582/11/1 583/5/1 584/2/1
f 585/11/1 586/12/1 587/7/1 588/5/1
f 589/13/1 590/14/1 591/10/1 592/9/1
f 593/14/1 594/15/1 595/11/1 596/10/1
f 597/15/1 598/16/1 599/12/1 600/11/1
f 601/7/1 602/17/1 603/18/1 604/8/1
f 605/17/1 606/19/1 607/20/1 608/18/1
f 609/17/1 610/19/1 611/20/1 612/18/1
f 613/19/1 614/21/1 615/22/1 616/20/1
f 617/12/1 618/23/1 619/17/1 620/7/1
f 621/23/1 622/24/1 623/19/1 624/17/1
f 625/23/1 626/24/1 627/19/1 628/17/1
f 629/24/1 630/25/1 631/21/1 632/19/1
f 633/16/1 634/26/1 635/23/1 636/12/1
f 637/26/1 638/27/1 639/24/1 640/23/1
f 641/26/1 642/27/1 643/24/1 644/23/1
f 645/27/1 646/28/1 647/25/1 648/24/1
f 649/1/1 650/2/1 651/3/1 652/4/1
f 653/2/1 654/5/1 655/6/1 656/3/1
f 657/5/1 658/7/1 659/8/1 660/6/1
f 661/9/1 662/10/1 663/2/1 664/1/1
f 665/10/1 666/11/1 667/5/1 668/2/1
f 669/11/1 670/12/1 671/7/1 672/5/1
f 673/7/1 674/17/1 675/18/1 676/8/1
f 677/17/1 678/19/1 679/20/1 680/18/1
f 681/17/1 682/19/1 683/20/1 684/18/1
f 685/17/1 686/19/1 687/20/1 688/18/1
f 689/19/1 690/21/1 691/22/1 692/20/1
f 693/9/1 694/10/1 695/2/1 696/1/1
f 697/10/1 698/11/1 699/5/1 700/2/1
f 701/11/1 702/12/1 703/7/1 704/5/1
f 705/12/1 706/23/1 707/17/1 708/7/1
f 709/23/1 710/24/1 711/19/1 712/17/1
f 713/23/1 714/24/1 715/19/1 716/17/1
f 717/23/1 718/24/1 719/19/1 720/17/1
f 721/24/1 722/25/1 723/21/1 724/19/1
f 725/9/1 726/10/1 727/2/1 728/1/1
f 729/10/1 730/11/1 731/5/1 732/2/1
f 733/11/1 734/12/1 735/7/1 736/5/1
f 737/16/1 738/26/1 739/23/1 740/12/1
f 741/26/1 742/27/1 743/24/1 744/23/1
f 745/26/1 746/27/1 747/24/1 748/23/1
f 749/26/1 750/27/1 751/24/1 752/23/1
f 753/27/1 754/28/1 755/25/1 756/24/1
f 757/13/1 758/14/1 759/10/1 760/9/1
f 761/14/1 762/15/1 763/11/1 764/10/1
f 765/15/1 766/16/1 767/12/1 768/11/1
f 769/7/1 770/17/1 771/18/1 772/8/1
f 773/17/1 774/19/1 775/20/1 776/18/1
f 777/19/1 778/21/1 779/22/1 780/20/1
f 781/12/1 782/23/1 783/17/1 784/7/1
f 785/23/1 786/24/1 787/19/1 788/17/1
f 789/24/1 790/25/1 791/21/1 792/19/1
f 793/16/1 794/26/1 795/23/1 796/12/1
f 797/26/1 798/27/1 799/24/1 800/23/1
f 801/27/1 802/28/1 803/25/1 804/24/1
f 805/7/1 806/17/1 807/18/1 808/8/1
f 809/17/1 810/19/1 811/20/1 812/18/1
f 813/19/1 814/21/1 815/22/1 816/20/1
f 817/12/1 818/23/1 819/17/1 820/7/1
f 821/23/1 822/24/1 823/19/1 824/17/1
f 825/24/1 826/25/1 827/21/1 828/19/1
f 829/16/1 830/26/1 831/23/1 832/12/1
f 833/26/1 834/27/1 835/24/1 836/23/1
f 837/27/1 838/28/1 839/25/1 840/24/1
f 841/7/1 842/17/1 843/18/1 844/8/1
f 845/17/1 846/19/1 847/20/1 848/18/1
f 849/19/1 850/21/1 851/22/1 852/20/1
f 853/12/1 854/23/1 855/17/1 856/7/1
f 857/23/1 858/24/1 859/19/1 860/17/1
f 861/24/1 862/25/1 863/21/1 864/19/1
f 865/16/1 866/26/1 867/23/1 868/12/1
f 869/26/1 870/27/1 871/24/1 872/23/1
f 873/27/1 874/28/1 875/25/1 876/24/1
f 877/1/1 878/2/1 879/3/1 880/4/1
f 881/2/1 882/5/1 883/6/1 884/3/1
f 885/5/1 886/7/1 887/8/1 888/6/1
f 889/9/1 890/10/1 891/2/1 892/1/1
f 893/10/1 894/11/1 895/5/1 896/2/1
f 897/11/1 898/12/1 899/7/1 900/5/1
f 901/13/1 902/14/1 903/10/1 904/9/1
f 905/14/1 906/15/1 907/11/1 908/10/1
f 909/15/1 910/16/1 911/12/1 912/11/1

